<svg width="22" height="16" viewBox="0 0 22 16" fill="none" xmlns="http://www.w3.org/2000/svg">
<g id="reshot-icon-money-UDAE2KLG5H 1" clip-path="url(#clip0_441_37)">
<path id="Vector" d="M20.4523 12.4218H21.1877V1.52344H4.68347V2.44344V12.4218H20.4523Z" fill="#548229"/>
<path id="Vector_2" d="M3.54734 3.57812H19.4897V14.4765H0.812292V3.57812H1.9766H3.54734Z" fill="#6EAC34"/>
<g id="Group">
<path id="Vector_3" d="M10.2571 12.4669C12.0994 12.4669 13.5929 10.943 13.5929 9.06306C13.5929 7.18315 12.0994 5.65918 10.2571 5.65918C8.41481 5.65918 6.92132 7.18315 6.92132 9.06306C6.92132 10.943 8.41481 12.4669 10.2571 12.4669Z" fill="#C6E0A9"/>
<path id="Vector_4" d="M0.812292 6.74637C2.52707 6.74637 3.91717 5.3279 3.91717 3.57812H0.812292V6.74637Z" fill="#C6E0A9"/>
<path id="Vector_5" d="M19.4897 6.74637C17.775 6.74637 16.3849 5.3279 16.3849 3.57812H19.4897V6.74637Z" fill="#C6E0A9"/>
<path id="Vector_6" d="M3.91721 14.4768C3.91721 12.7271 2.52711 11.3086 0.812326 11.3086V14.4768H3.91721Z" fill="#C6E0A9"/>
<path id="Vector_7" d="M16.3849 14.4768C16.3849 12.7271 17.775 11.3086 19.4897 11.3086V14.4768H16.3849Z" fill="#C6E0A9"/>
</g>
<g id="Group_2" opacity="0.46">
<path id="Vector_8" d="M16.7296 3.59277C14.8918 8.81645 10.1029 12.4116 6.49788 14.4767H18.161H19.4898V3.59277H16.7296Z" fill="#548229"/>
</g>
<path id="Vector_9" d="M9.66507 10.0268C9.66507 9.85084 9.52524 9.70816 9.35277 9.70816C9.1803 9.70816 9.04048 9.85084 9.04048 10.0268C9.04048 10.6011 9.4248 11.0854 9.94471 11.2265V11.455C9.94471 11.631 10.0845 11.7736 10.257 11.7736C10.4295 11.7736 10.5693 11.631 10.5693 11.455V11.2265C11.0892 11.0854 11.4735 10.6011 11.4735 10.0268C11.4735 9.40975 11.0247 9.16483 10.6286 8.94879C10.6091 8.93811 10.5891 8.92706 10.5693 8.91618V7.66935C10.7368 7.77612 10.8488 7.96546 10.8488 8.18146C10.8488 8.35745 10.9886 8.50013 11.1611 8.50013C11.3336 8.50013 11.4734 8.35745 11.4734 8.18146C11.4734 7.60716 11.0892 7.12284 10.5692 6.98179V6.67121C10.5692 6.49521 10.4294 6.35254 10.2569 6.35254C10.0845 6.35254 9.94463 6.49521 9.94463 6.67121V6.98179C9.42471 7.12288 9.0404 7.60716 9.0404 8.18146C9.0404 8.78506 9.46753 9.02274 9.84439 9.23251C9.87732 9.25084 9.91091 9.26967 9.94463 9.28876V10.5389C9.77712 10.4322 9.66507 10.2428 9.66507 10.0268ZM10.8489 10.0268C10.8489 10.2428 10.7368 10.4321 10.5693 10.5389V9.64484C10.7756 9.77182 10.8489 9.86172 10.8489 10.0268ZM9.66507 8.18146C9.66507 7.9655 9.77712 7.77612 9.94467 7.66931V8.55834C9.72351 8.42337 9.66507 8.34489 9.66507 8.18146Z" fill="black"/>
<path id="Vector_10" d="M19.4898 3.25977H3.54734C3.37487 3.25977 3.23504 3.40244 3.23504 3.57843C3.23504 3.75442 3.37487 3.8971 3.54734 3.8971H3.58696C3.44262 5.21416 2.41531 6.26244 1.12459 6.40972V3.8971H1.97656C2.14903 3.8971 2.28886 3.75442 2.28886 3.57843C2.28886 3.40244 2.14903 3.25977 1.97656 3.25977H0.812293C0.639822 3.25977 0.5 3.40244 0.5 3.57843V14.4768C0.5 14.6528 0.639822 14.7955 0.812293 14.7955H19.4898C19.6623 14.7955 19.8021 14.6528 19.8021 14.4768V3.57843C19.8021 3.40244 19.6623 3.25977 19.4898 3.25977ZM19.1775 6.40977C17.8867 6.26249 16.8594 5.2142 16.7151 3.89714H19.1775V6.40977ZM4.21462 3.8971H16.0874C16.2363 5.56589 17.542 6.89814 19.1774 7.05019V11.0051C17.542 11.1571 16.2364 12.4894 16.0874 14.1582H4.21462C4.06569 12.4894 2.76 11.1572 1.12459 11.0051V7.05019C2.76 6.89823 4.06569 5.56589 4.21462 3.8971ZM1.12459 11.6455C2.41531 11.7929 3.44267 12.8411 3.58696 14.1582H1.12459V11.6455ZM16.7151 14.1582C16.8594 12.8411 17.8867 11.7928 19.1774 11.6455V14.1582H16.7151Z" fill="black"/>
<path id="Vector_11" d="M21.1877 1.20508H4.68347C4.511 1.20508 4.37118 1.34775 4.37118 1.52374V2.44379C4.37118 2.61978 4.511 2.76246 4.68347 2.76246C4.85594 2.76246 4.99576 2.61978 4.99576 2.44379V1.84245H20.8754V12.1035H20.4523C20.2797 12.1035 20.14 12.2462 20.14 12.4222C20.14 12.5982 20.2797 12.7408 20.4523 12.7408H21.1877C21.3602 12.7408 21.5 12.5982 21.5 12.4222V1.52374C21.5 1.3478 21.3602 1.20508 21.1877 1.20508Z" fill="black"/>
<path id="Vector_12" d="M10.257 12.7857C12.2685 12.7857 13.905 11.1159 13.905 9.06328C13.905 7.0107 12.2685 5.34082 10.257 5.34082C8.24547 5.34082 6.60899 7.0107 6.60899 9.06328C6.60899 11.1159 8.24547 12.7857 10.257 12.7857ZM10.257 5.97824C11.9242 5.97824 13.2804 7.36222 13.2804 9.06337C13.2804 10.7645 11.9242 12.1485 10.257 12.1485C8.58988 12.1485 7.23358 10.7645 7.23358 9.06337C7.23358 7.36222 8.58988 5.97824 10.257 5.97824Z" fill="black"/>
</g>
<defs>
<clipPath id="clip0_441_37">
<rect width="21" height="15" fill="white" transform="translate(0.5 0.5)"/>
</clipPath>
</defs>
</svg>
