<svg width="24" height="16" viewBox="0 0 24 16" fill="none" xmlns="http://www.w3.org/2000/svg">
<g id="Frame">
<g id="SVGRepo_iconCarrier">
<path id="Vector" d="M21.4044 15.9062H2.59656C1.84187 15.9062 1.22555 15.1917 1.22555 14.3167V1.68333C1.22555 0.808334 1.84187 0.09375 2.59656 0.09375H21.4044C22.1591 0.09375 22.7755 0.808334 22.7755 1.68333V14.3167C22.7755 15.1917 22.1591 15.9062 21.4044 15.9062Z" fill="#FFC107"/>
<path id="Vector_2" d="M1.22414 2.7666H22.7777V6.11452H1.22414V2.7666Z" fill="#424242"/>
<path id="Vector_3" d="M21.0203 10.1122H2.99226C2.81617 10.1122 2.67062 9.94551 2.67062 9.73926V7.98717C2.67062 7.78301 2.81437 7.61426 2.99226 7.61426H21.0203C21.1964 7.61426 21.3419 7.78092 21.3419 7.98717V9.73926C21.3402 9.94342 21.1964 10.1122 21.0203 10.1122Z" fill="white"/>
<path id="Vector_4" d="M4.80891 9.3524C4.90953 9.1274 4.93648 8.8649 5.02633 8.63365C5.11617 8.4024 5.31203 8.18782 5.52766 8.2274C5.72711 8.2649 5.85109 8.49615 5.92477 8.71282C6.02719 9.0149 6.08289 9.33782 6.09008 9.66282C6.09188 9.72948 6.08828 9.8024 6.05055 9.85448C5.98406 9.94198 5.8475 9.89823 5.79539 9.79823C5.74328 9.69823 5.75586 9.57115 5.77922 9.45657C5.89063 8.92532 6.25 8.47323 6.69742 8.3024C6.74414 8.28365 6.79266 8.26907 6.84117 8.27948C6.94539 8.3024 7.00289 8.4274 7.04961 8.53573C7.15922 8.78365 7.29219 9.01907 7.44492 9.23365C7.50602 9.32115 7.57609 9.40657 7.66953 9.4399C7.9768 9.54407 8.15469 9.01907 8.45117 8.87948C8.80695 8.71282 9.15375 9.14823 9.53109 9.22948C10.0827 9.34823 10.3756 8.85032 10.859 8.72323C10.9237 8.70657 10.9937 8.69615 11.0584 8.71698C11.177 8.75657 11.2507 8.88782 11.3208 9.00657C11.4843 9.28573 11.7179 9.56073 12.009 9.56282C12.1941 9.5649 12.3648 9.45448 12.5337 9.36073C13.132 9.02948 13.8382 8.89198 14.4635 9.14615" stroke="#424242" stroke-miterlimit="10" stroke-linecap="round" stroke-linejoin="round"/>
</g>
</g>
</svg>
