<svg width="28" height="51" viewBox="0 0 28 51" fill="none" xmlns="http://www.w3.org/2000/svg">
<g id="Screenshot 2024-07-11 004018 1" clip-path="url(#clip0_667_3542)">
<g id="Group">
<path id="Vector" fill-rule="evenodd" clip-rule="evenodd" d="M21.2365 6.70393C21.2574 6.82819 21.2168 6.91173 21.1149 6.95455C20.7752 6.79841 20.4508 6.84018 20.1419 7.07985C18.4824 7.28597 17.5499 8.24666 17.3446 9.96192C17.245 10.3135 17.1842 10.6894 17.1622 11.0897C17.0611 16.0813 17.0813 21.0518 17.223 26.0012C17.223 26.0848 17.223 26.1683 17.223 26.2518C17.3015 29.5196 17.1799 32.7776 16.8581 36.0258C16.6571 36.7644 16.4543 37.5162 16.25 38.2813C16.0597 38.5331 15.938 38.8255 15.8851 39.1585C15.4143 40.0635 14.8872 40.9406 14.304 41.7899C13.9392 42.0823 13.6148 42.4165 13.3311 42.7924C12.3774 43.6378 11.3639 44.3897 10.2905 45.0479C10.1038 45.1549 9.94168 45.1549 9.80405 45.0479C10.5106 44.2621 11.0984 43.385 11.5676 42.4165C12.0417 41.1531 12.3863 39.8583 12.6013 38.5319C12.9041 37.3581 13.0662 36.1467 13.0878 34.898C13.0878 34.5221 13.0878 34.1462 13.0878 33.7703C13.2088 32.2053 13.2495 30.618 13.2095 29.0086C13.2498 22.8472 13.2093 16.7072 13.0878 10.5885C13.0942 10.2874 13.0537 9.99497 12.9662 9.7113C12.9772 9.37896 12.8962 9.08658 12.723 8.83415C12.403 8.17035 11.9165 7.66912 11.2635 7.33047C10.5086 7.09634 9.73832 6.92927 8.9527 6.82924C13.0465 6.70394 17.1411 6.66218 21.2365 6.70393Z" fill="black"/>
</g>
<g id="Group_2">
<path id="Vector_2" fill-rule="evenodd" clip-rule="evenodd" d="M21.1149 6.95455C20.7905 6.99631 20.4663 7.03809 20.1419 7.07985C20.4508 6.84018 20.7752 6.79841 21.1149 6.95455Z" fill="black"/>
</g>
<g id="Group_3">
<path id="Vector_3" fill-rule="evenodd" clip-rule="evenodd" d="M12.723 8.83415C12.8962 9.08658 12.9772 9.37896 12.9662 9.7113C12.793 9.45887 12.712 9.16649 12.723 8.83415Z" fill="black"/>
</g>
<g id="Group_4">
<path id="Vector_4" fill-rule="evenodd" clip-rule="evenodd" d="M21.2365 6.70393C22.0469 8.49903 22.6145 10.3786 22.9392 12.3428C22.4253 10.5198 21.8172 8.72374 21.1149 6.95454C21.2168 6.91173 21.2574 6.82818 21.2365 6.70393Z" fill="black"/>
</g>
<g id="Group_5">
<path id="Vector_5" fill-rule="evenodd" clip-rule="evenodd" d="M17.3446 9.96192C17.3446 10.3796 17.3446 10.7973 17.3446 11.215C17.2231 16.1224 17.1826 21.0511 17.223 26.0012C17.0813 21.0518 17.0611 16.0813 17.1622 11.0897C17.1842 10.6894 17.245 10.3135 17.3446 9.96192Z" fill="black"/>
</g>
<g id="Group_6">
<path id="Vector_6" fill-rule="evenodd" clip-rule="evenodd" d="M23.3041 14.5983C23.4447 15.5786 23.465 16.581 23.3649 17.6057C23.3367 17.7607 23.2758 17.886 23.1824 17.9816C23.2898 16.8579 23.3303 15.7302 23.3041 14.5983Z" fill="black"/>
</g>
<g id="Group_7">
<path id="Vector_7" fill-rule="evenodd" clip-rule="evenodd" d="M22.9392 12.3428C23.2143 13.0526 23.3359 13.8045 23.304 14.5983C23.3303 15.7302 23.2898 16.8579 23.1824 17.9816C22.3779 21.6451 20.3914 24.4018 17.223 26.2518C17.223 26.1683 17.223 26.0848 17.223 26.0012C17.3436 26.0228 17.4246 25.9809 17.4662 25.8759C22.1542 22.6426 23.9786 18.1316 22.9392 12.3428Z" fill="black"/>
</g>
<g id="Group_8">
<path id="Vector_8" fill-rule="evenodd" clip-rule="evenodd" d="M12.2365 29.3845C11.3889 30.1144 10.5375 30.8455 9.68241 31.5774C8.31195 32.8852 7.50114 34.4933 7.24998 36.4017C7.16889 37.1536 7.08782 37.9054 7.00673 38.6572C6.75389 36.6671 7.13903 34.8292 8.16214 33.1437C9.24089 31.5511 10.599 30.298 12.2365 29.3845Z" fill="black"/>
</g>
<g id="Group_9">
<path id="Vector_9" fill-rule="evenodd" clip-rule="evenodd" d="M7.25002 36.4017C7.19142 39.5909 7.75898 42.6609 8.95272 45.6118C8.87164 45.8624 8.79056 45.8624 8.70948 45.6118C7.84972 43.3647 7.28216 41.0465 7.00677 38.6572C7.08786 37.9054 7.16893 37.1536 7.25002 36.4017Z" fill="black"/>
</g>
<g id="Group_10">
<path id="Vector_10" fill-rule="evenodd" clip-rule="evenodd" d="M14.304 41.7899C14.1013 42.2494 13.777 42.5835 13.3311 42.7924C13.6148 42.4165 13.9392 42.0823 14.304 41.7899Z" fill="black"/>
</g>
<g id="Group_11">
<path id="Vector_11" fill-rule="evenodd" clip-rule="evenodd" d="M9.80403 45.0479C9.94166 45.1549 10.1038 45.1549 10.2905 45.0479C10.0311 45.2717 9.72707 45.4387 9.37836 45.5491C9.31754 45.5282 9.25673 45.5074 9.19592 45.4865C9.35966 45.2773 9.56237 45.1311 9.80403 45.0479Z" fill="black"/>
</g>
</g>
<defs>
<clipPath id="clip0_667_3542">
<rect width="27" height="51" fill="white" transform="translate(0.5)"/>
</clipPath>
</defs>
</svg>
