<svg width="44" height="81" viewBox="0 0 44 81" fill="none" xmlns="http://www.w3.org/2000/svg">
<g id="Screenshot 2024-07-11 004018 1" clip-path="url(#clip0_121_1926)">
<g id="Group">
<path id="Vector" fill-rule="evenodd" clip-rule="evenodd" d="M33.7928 11.016C33.8269 11.2109 33.7607 11.342 33.5946 11.4091C33.041 11.1642 32.5124 11.2297 32.009 11.6057C29.3046 11.929 27.785 13.436 27.4505 16.1266C27.2881 16.678 27.189 17.2677 27.1532 17.8956C26.9885 25.7256 27.0214 33.5225 27.2523 41.2863C27.2523 41.4174 27.2523 41.5483 27.2523 41.6794C27.3803 46.8053 27.1821 51.9159 26.6577 57.0111C26.33 58.1696 25.9996 59.349 25.6667 60.5492C25.3565 60.9441 25.1583 61.4028 25.0721 61.9251C24.3049 63.3447 23.4459 64.7206 22.4955 66.0529C21.9009 66.5114 21.3723 67.0357 20.9099 67.6254C19.3557 68.9515 17.7041 70.1309 15.955 71.1634C15.6507 71.3313 15.3864 71.3313 15.1622 71.1634C16.3136 69.9308 17.2715 68.5549 18.036 67.0357C18.8087 65.054 19.3703 63.0229 19.7207 60.9423C20.214 59.1009 20.4782 57.2008 20.5135 55.2421C20.5135 54.6524 20.5135 54.0627 20.5135 53.473C20.7107 51.0182 20.7769 48.5283 20.7117 46.0037C20.7775 36.3389 20.7115 26.7074 20.5135 17.1094C20.5238 16.6371 20.4578 16.1784 20.3153 15.7335C20.3332 15.2121 20.2012 14.7535 19.9189 14.3575C19.3975 13.3163 18.6047 12.53 17.5405 11.9988C16.3103 11.6316 15.0551 11.3695 13.7748 11.2126C20.4461 11.016 27.1189 10.9505 33.7928 11.016Z" fill="#E02C45"/>
</g>
<g id="Group_2">
<path id="Vector_2" fill-rule="evenodd" clip-rule="evenodd" d="M33.5946 11.4091C33.066 11.4746 32.5376 11.5401 32.009 11.6056C32.5125 11.2297 33.0411 11.1642 33.5946 11.4091Z" fill="#E02C45"/>
</g>
<g id="Group_3">
<path id="Vector_3" fill-rule="evenodd" clip-rule="evenodd" d="M19.9189 14.3575C20.2011 14.7535 20.3331 15.2121 20.3153 15.7335C20.0331 15.3375 19.9011 14.8789 19.9189 14.3575Z" fill="#E02C45"/>
</g>
<g id="Group_4">
<path id="Vector_4" fill-rule="evenodd" clip-rule="evenodd" d="M33.7928 11.016C35.1134 13.8318 36.0384 16.7802 36.5676 19.8612C35.7302 17.0017 34.7392 14.1843 33.5946 11.4091C33.7607 11.3419 33.8269 11.2109 33.7928 11.016Z" fill="#E02C45"/>
</g>
<g id="Group_5">
<path id="Vector_5" fill-rule="evenodd" clip-rule="evenodd" d="M27.4505 16.1266C27.4505 16.7818 27.4505 17.437 27.4505 18.0922C27.2525 25.7901 27.1865 33.5214 27.2523 41.2863C27.0214 33.5226 26.9885 25.7256 27.1532 17.8956C27.189 17.2677 27.2881 16.678 27.4505 16.1266Z" fill="#E02C45"/>
</g>
<g id="Group_6">
<path id="Vector_6" fill-rule="evenodd" clip-rule="evenodd" d="M37.1622 23.3993C37.3913 24.937 37.4244 26.5095 37.2613 28.1167C37.2153 28.3599 37.1162 28.5564 36.964 28.7064C37.139 26.9439 37.205 25.1748 37.1622 23.3993Z" fill="#E02C45"/>
</g>
<g id="Group_7">
<path id="Vector_7" fill-rule="evenodd" clip-rule="evenodd" d="M36.5676 19.8612C37.0159 20.9747 37.2141 22.1541 37.1622 23.3993C37.205 25.1748 37.139 26.9439 36.964 28.7064C35.6529 34.453 32.4157 38.7774 27.2523 41.6794C27.2523 41.5483 27.2523 41.4174 27.2523 41.2863C27.4489 41.3201 27.5809 41.2544 27.6487 41.0897C35.2884 36.0179 38.2614 28.9417 36.5676 19.8612Z" fill="#E02C45"/>
</g>
<g id="Group_8">
<path id="Vector_8" fill-rule="evenodd" clip-rule="evenodd" d="M19.1261 46.5934C17.7449 47.7383 16.3575 48.8851 14.964 50.0332C12.7306 52.0847 11.4093 54.6071 11 57.6008C10.8679 58.7801 10.7357 59.9595 10.6036 61.1388C10.1916 58.0171 10.8192 55.1341 12.4865 52.4902C14.2445 49.9919 16.4577 48.0263 19.1261 46.5934Z" fill="#E02C45"/>
</g>
<g id="Group_9">
<path id="Vector_9" fill-rule="evenodd" clip-rule="evenodd" d="M11 57.6007C10.9045 62.6034 11.8294 67.4191 13.7747 72.0479C13.6426 72.441 13.5105 72.441 13.3784 72.0479C11.9773 68.523 11.0524 64.8866 10.6036 61.1388C10.7357 59.9594 10.8678 58.7801 11 57.6007Z" fill="#E02C45"/>
</g>
<g id="Group_10">
<path id="Vector_10" fill-rule="evenodd" clip-rule="evenodd" d="M22.4955 66.0529C22.1651 66.7736 21.6367 67.2977 20.9099 67.6253C21.3723 67.0357 21.9009 66.5114 22.4955 66.0529Z" fill="#E02C45"/>
</g>
<g id="Group_11">
<path id="Vector_11" fill-rule="evenodd" clip-rule="evenodd" d="M15.1621 71.1633C15.3864 71.3312 15.6507 71.3312 15.9549 71.1633C15.5322 71.5144 15.0367 71.7764 14.4684 71.9496C14.3693 71.9167 14.2702 71.8841 14.1711 71.8513C14.438 71.5232 14.7683 71.2938 15.1621 71.1633Z" fill="#E02C45"/>
</g>
</g>
<defs>
<clipPath id="clip0_121_1926">
<rect width="44" height="80" fill="white" transform="translate(0 0.5)"/>
</clipPath>
</defs>
</svg>
