<svg width="50" height="25" viewBox="0 0 50 25" fill="none" xmlns="http://www.w3.org/2000/svg">
<g id="Meeza 1" clip-path="url(#clip0_413_1322)">
<path id="Vector" d="M19.1361 0.6875L17.4177 24.3125H9.0929C0.882679 24.3125 0.309874 21.2 0.729931 15.3125L2.06648 0.6875H19.1361Z" fill="#510C76"/>
<path id="Vector_2" d="M21.0836 10.2502L20.7781 14.5627C20.6254 16.1377 21.8092 17.5252 23.413 17.6752C23.4894 17.6752 23.604 17.6752 23.6803 17.6752H25.0169C26.7735 17.6377 28.2246 16.2877 28.3392 14.5627L28.8356 7.1377H24.4441C22.6493 7.1752 21.1982 8.5252 21.0836 10.2502ZM25.6661 14.5627C25.6279 14.7877 25.437 14.9752 25.2078 14.9752H23.8713C23.6422 14.9752 23.4894 14.8252 23.4894 14.6002V14.5627L23.7949 10.2502C23.8331 10.0252 24.024 9.8377 24.2532 9.8377H26.0098L25.6661 14.5627Z" fill="#510C76"/>
<path id="Vector_3" d="M45.867 7.13711H41.3992L40.9027 14.5621C40.9027 14.8621 40.9027 15.1246 40.9791 15.3871H40.7882C39.3752 15.3871 38.6879 14.4121 38.8024 12.6121L39.0316 9.46211L39.1079 8.33711C39.1461 7.69961 38.6497 7.17461 38.0005 7.09961C37.9623 7.09961 37.9623 7.09961 37.9241 7.09961H36.3966L36.3203 8.33711L36.1293 11.3371V11.5246V11.8246L36.0912 12.1621V12.3121V12.4996V12.6121L36.053 13.3621C36.0148 13.9621 36.053 14.5621 36.1675 15.1621C35.8238 15.3496 35.4802 15.4246 35.0983 15.4246C33.8763 15.4246 32.3106 15.0496 32.3106 12.9496L32.5398 8.37461C32.6161 7.73711 32.1197 7.17461 31.4705 7.13711C31.4323 7.13711 31.3941 7.13711 31.3941 7.13711H29.8667L29.7903 8.37461L29.0647 19.1371C29.0265 19.8121 28.912 21.4996 28.912 21.4996H30.4013C31.0886 21.4996 31.6996 20.9371 31.7378 20.2621L31.8906 17.6371C32.3106 17.8621 33.3799 17.9746 34.0291 17.9746C35.0983 17.9746 36.0912 17.5246 36.7785 16.7371C37.4277 17.5246 38.4206 17.9746 39.7189 17.9746C40.5972 17.9746 41.4373 17.7121 42.1247 17.2246C42.392 17.4871 42.6975 17.6746 43.0794 17.7871C43.3085 17.8621 43.5758 17.8621 43.8049 17.8621H45.1415C46.8981 17.8246 48.3492 16.4746 48.5019 14.7496L48.8074 10.2871C48.9602 8.71211 47.7764 7.32461 46.1725 7.17461C46.058 7.13711 45.9434 7.13711 45.867 7.13711ZM45.7907 14.7121C45.7907 14.9371 45.5615 15.1246 45.3324 15.1246H43.9959C43.7668 15.1246 43.614 14.9746 43.614 14.7496V14.7121L43.9195 9.83711H45.6761C45.9052 9.83711 46.058 9.98711 46.058 10.2121V10.2496L45.7907 14.7121Z" fill="#510C76"/>
<path id="Vector_4" d="M22.6493 4.58789L22.6111 5.18789C22.5729 5.75039 22.993 6.27539 23.5658 6.31289C23.604 6.31289 23.6422 6.31289 23.6422 6.31289H24.1386C24.7878 6.31289 25.2842 5.82539 25.3606 5.18789L25.4751 3.46289H23.8331C23.2221 3.46289 22.6875 3.95039 22.6493 4.58789Z" fill="#510C76"/>
<path id="Vector_5" d="M25.7425 4.58789L25.7043 5.18789C25.6661 5.75039 26.0862 6.27539 26.6971 6.31289C26.7353 6.31289 26.7353 6.31289 26.7735 6.31289H27.2318C27.8809 6.31289 28.3774 5.82539 28.4537 5.18789L28.5683 3.46289H26.9645C26.3153 3.46289 25.7807 3.95039 25.7425 4.58789Z" fill="#510C76"/>
<path id="Vector_6" d="M31.0123 6.27539H31.6233C32.1961 6.31289 32.7307 5.90039 32.7689 5.30039V5.26289L32.807 4.77539C32.8452 4.13789 32.5016 3.46289 31.8906 3.46289H30.0194L29.9048 5.03789C29.8666 5.67539 30.3631 6.23789 31.0123 6.27539Z" fill="#EB6B24"/>
<path id="Vector_7" d="M32.4252 19.7754L32.387 20.3754C32.3488 20.9379 32.7689 21.4629 33.3417 21.5004C33.3799 21.5004 33.418 21.5004 33.4562 21.5004H33.9527C34.6018 21.5004 35.0983 21.0129 35.1746 20.3754L35.2892 18.6504H33.6854C32.998 18.6504 32.4634 19.1754 32.4252 19.7754Z" fill="#510C76"/>
<path id="Vector_8" d="M35.7093 19.7754L35.6711 20.3754C35.6329 20.9379 36.053 21.4629 36.6258 21.5004C36.6639 21.5004 36.7021 21.5004 36.7021 21.5004H37.1986C37.8477 21.5004 38.3442 21.0129 38.4205 20.3754L38.5351 18.6504H36.9313C36.2821 18.6504 35.7475 19.1754 35.7093 19.7754Z" fill="#510C76"/>
<path id="Vector_9" d="M37.695 6.23711H37.3513C37.275 6.23711 37.275 6.19961 37.275 6.16211L37.3895 4.73711C37.3895 4.62461 37.3895 4.51211 37.3895 4.39961C37.3895 4.24961 37.3131 4.17461 37.1604 4.17461C37.0077 4.17461 36.8931 4.17461 36.7785 4.17461C36.7403 4.17461 36.7403 4.17461 36.7403 4.21211C36.7785 4.43711 36.7785 4.66211 36.7403 4.84961C36.7022 5.14961 36.7022 5.48711 36.664 5.78711C36.664 5.89961 36.664 6.01211 36.6258 6.12461C36.5876 6.23711 36.5876 6.19961 36.5112 6.19961H35.8239C35.7475 6.19961 35.7475 6.19961 35.7475 6.12461C35.7857 5.63711 35.8239 5.14961 35.862 4.66211C35.862 4.54961 35.862 4.43711 35.862 4.32461C35.862 4.21211 35.7857 4.13711 35.7093 4.13711H35.6711C35.5565 4.13711 35.4038 4.13711 35.2892 4.13711C35.251 4.13711 35.251 4.13711 35.251 4.17461C35.2129 4.47461 35.2129 4.77461 35.1747 5.07461C35.1365 5.37461 35.1365 5.74961 35.0983 6.08711C35.0983 6.16211 35.0601 6.19961 34.9837 6.19961H34.2964C34.22 6.19961 34.1818 6.16211 34.22 6.08711C34.2582 5.59961 34.2964 5.07461 34.3346 4.58711C34.3727 4.24961 34.3727 3.91211 34.4109 3.57461C34.4109 3.49961 34.4491 3.49961 34.5255 3.46211C34.7164 3.42461 34.8692 3.42461 35.0601 3.38711C35.3656 3.34961 35.6329 3.34961 35.9384 3.38711C36.0912 3.38711 36.2821 3.46211 36.4348 3.49961C36.473 3.49961 36.473 3.49961 36.5112 3.49961C36.8167 3.38711 37.1604 3.34961 37.4659 3.34961C37.6186 3.34961 37.7332 3.38711 37.886 3.42461C38.1151 3.49961 38.306 3.68711 38.3442 3.91211C38.3824 4.09961 38.3824 4.32461 38.3442 4.51211L38.2678 5.74961C38.2678 5.86211 38.2678 5.97461 38.2296 6.08711C38.1915 6.19961 38.1915 6.16211 38.1151 6.16211L37.695 6.23711Z" fill="#510C76"/>
<path id="Vector_10" d="M42.9266 5.1123H42.1629C42.1247 5.1123 42.0865 5.1123 42.0865 5.1873C42.0865 5.4123 42.1629 5.5248 42.392 5.5248C42.5829 5.5248 42.7357 5.5248 42.9266 5.5248H43.4613C43.5376 5.5248 43.5758 5.52481 43.5758 5.63731C43.5758 5.78731 43.5758 5.9373 43.5376 6.1248C43.5376 6.1623 43.4994 6.19981 43.4613 6.19981C43.1939 6.23731 42.9648 6.2748 42.6975 6.2748C42.4684 6.2748 42.2393 6.2748 42.0101 6.2748C41.8574 6.2748 41.7046 6.1998 41.5519 6.1248C41.3992 6.0123 41.2846 5.8623 41.2846 5.6748C41.2464 5.4123 41.2464 5.14981 41.2846 4.88731C41.2846 4.66231 41.3228 4.4373 41.3992 4.2123C41.4373 3.9873 41.5901 3.7623 41.8192 3.6498C41.9338 3.5748 42.0865 3.5373 42.2393 3.4998C42.583 3.4623 42.9266 3.4623 43.2321 3.4998C43.3849 3.5373 43.5376 3.5748 43.6522 3.6873C43.7667 3.7998 43.8813 3.9873 43.8813 4.1748C43.9195 4.4748 43.9195 4.7748 43.8813 5.07481C43.8813 5.11231 43.8431 5.1498 43.8049 5.1498H43.6522L42.9266 5.1123ZM42.1629 4.5873H42.8503C43.0412 4.5873 43.0412 4.5873 43.003 4.3998C43.003 4.2873 42.8884 4.2123 42.7739 4.1748C42.6975 4.1748 42.5829 4.1748 42.5066 4.1748C42.3538 4.1748 42.2393 4.2498 42.2011 4.3998C42.1629 4.4373 42.1629 4.5123 42.1629 4.5873Z" fill="#510C76"/>
<path id="Vector_11" d="M40.1772 5.1127C39.9099 5.1127 39.6807 5.1127 39.4516 5.1127C39.3752 5.1127 39.3752 5.1502 39.3752 5.1877C39.3752 5.4127 39.4516 5.4877 39.6807 5.5252C39.7571 5.5252 39.8335 5.5252 39.8717 5.5252H40.75C40.8263 5.5252 40.8645 5.5252 40.8263 5.6002C40.8263 5.7502 40.7882 5.9377 40.7882 6.0877C40.7882 6.1252 40.75 6.1627 40.7118 6.1627C40.4827 6.2002 40.2154 6.2002 39.9862 6.2377C39.7189 6.2377 39.4516 6.2377 39.1461 6.2002C39.0316 6.2002 38.917 6.1252 38.8024 6.0877C38.6497 5.9752 38.5351 5.8252 38.4969 5.6002C38.4587 5.3002 38.4587 5.0377 38.4969 4.7377C38.4969 4.5502 38.5351 4.3627 38.5733 4.1752C38.6115 3.9127 38.7642 3.6877 38.9934 3.5752C39.1079 3.5002 39.2607 3.4627 39.4134 3.4627C39.7571 3.4252 40.1008 3.4252 40.4445 3.4627C40.5972 3.5002 40.75 3.5377 40.8645 3.6502C41.0173 3.7627 41.0937 3.9502 41.0937 4.1377C41.0937 4.3627 41.0937 4.5877 41.0937 4.7752C41.0937 4.8502 41.0937 4.9252 41.0937 4.9627C41.0937 5.0002 41.0555 5.0752 40.9791 5.0752L40.1772 5.1127ZM40.2535 4.5877C40.2535 4.5127 40.2535 4.4377 40.2535 4.3627C40.2535 4.2502 40.139 4.1752 40.0626 4.1752C39.9862 4.1752 39.8717 4.1752 39.7953 4.1752C39.5662 4.1752 39.4516 4.3627 39.4516 4.5877H40.2535Z" fill="#510C76"/>
<path id="Vector_12" d="M47.5091 4.13737H47.0126C46.9363 4.13737 46.8981 4.09987 46.9363 4.06237C46.9363 3.91237 46.9745 3.72487 46.9745 3.57487C46.9745 3.53737 47.0126 3.49987 47.0508 3.49987C47.4327 3.42487 47.8528 3.38737 48.2346 3.42487C48.4256 3.42487 48.5783 3.46237 48.7692 3.49987C49.0366 3.57487 49.2275 3.83737 49.2275 4.09987C49.2275 4.43737 49.1893 4.77487 49.1511 5.14987L49.1129 5.93737C49.1129 6.08737 49.0747 6.12487 48.922 6.16237C48.4256 6.23737 47.9291 6.27487 47.4327 6.23737C47.3181 6.23737 47.1654 6.19987 47.0508 6.19987C46.8599 6.16237 46.7071 5.97487 46.669 5.78737C46.6308 5.52487 46.6308 5.26237 46.7453 5.03737C46.8217 4.81237 47.0508 4.62487 47.3181 4.62487C47.4709 4.58737 47.5854 4.58737 47.7382 4.58737C47.9291 4.58737 48.1201 4.58737 48.311 4.58737C48.3492 4.58737 48.3492 4.58737 48.3492 4.54987V4.51237C48.3492 4.32487 48.2728 4.21237 48.0437 4.21237L47.5091 4.13737ZM48.2728 5.03737C48.0819 5.03737 47.8909 5.03737 47.7382 5.03737C47.6236 5.03737 47.5091 5.11237 47.5091 5.22487C47.5091 5.26237 47.5091 5.29987 47.5091 5.33737C47.5091 5.44987 47.5854 5.52487 47.6618 5.52487C47.6618 5.52487 47.6618 5.52487 47.7 5.52487C47.8909 5.52487 48.0819 5.52487 48.2346 5.48737C48.2346 5.48737 48.2728 5.48737 48.2728 5.44987C48.2346 5.33737 48.2346 5.18737 48.2728 5.03737Z" fill="#510C76"/>
<path id="Vector_13" d="M45.2179 5.4873H46.3635C46.4017 5.4873 46.4017 5.52481 46.4017 5.5623C46.4017 5.7498 46.3635 5.9373 46.3635 6.1248C46.3635 6.19981 46.3253 6.19981 46.2489 6.19981H44.0341C43.9195 6.19981 43.9195 6.1623 43.9195 6.0873C43.9195 6.0123 43.9195 5.8248 43.9577 5.7123C43.9577 5.6748 43.9959 5.63731 43.9959 5.59981L45.0651 4.3623L45.256 4.13731H44.225C44.1104 4.13731 44.1104 4.1373 44.1104 4.0248L44.1486 3.53731C44.1486 3.46231 44.1868 3.4248 44.2632 3.4248H46.4017C46.478 3.4248 46.5162 3.46231 46.478 3.53731C46.478 3.68731 46.478 3.79981 46.4398 3.94981C46.4398 3.98731 46.4398 4.0248 46.4017 4.0623C46.0198 4.51231 45.6379 4.99981 45.256 5.44981L45.2179 5.4873Z" fill="#510C76"/>
<path id="Vector_14" d="M40.6354 18.7998C39.948 18.8373 39.4134 19.3623 39.3752 20.0373L39.2607 21.4998H46.8981C47.5855 21.4623 48.1201 20.9373 48.1583 20.2623L48.2728 18.7998H40.6354Z" fill="#EB6B24"/>
<path id="Vector_15" d="M11.4987 17.7504H7.14537C6.49619 17.7504 5.99976 17.2629 5.99976 16.6254C5.99976 16.5879 5.99976 16.5504 5.99976 16.5129L6.61075 8.26289C6.68712 7.58789 7.25993 7.06289 7.9473 7.02539H12.2624C12.9116 7.02539 13.408 7.51289 13.408 8.15039C13.408 8.18789 13.408 8.22539 13.408 8.26289L12.7971 16.5129C12.7589 17.1879 12.1861 17.7504 11.4987 17.7504ZM7.87092 7.88789C7.6418 7.88789 7.48905 8.03789 7.45086 8.26289L6.83987 16.5129C6.83987 16.7379 6.99262 16.8879 7.22174 16.8879H11.5751C11.8042 16.8879 11.9569 16.7379 11.9951 16.5129L12.6061 8.26289C12.6061 8.03789 12.4534 7.88789 12.2242 7.88789H7.87092Z" fill="white"/>
<path id="Vector_16" d="M12.6061 15.125L12.5297 15.95H6.49619L6.57256 15.125H12.6061Z" fill="white"/>
</g>
<defs>
<clipPath id="clip0_413_1322">
<rect width="50" height="25" fill="white"/>
</clipPath>
</defs>
</svg>
