<svg width="50" height="17" viewBox="0 0 50 17" fill="none" xmlns="http://www.w3.org/2000/svg">
<g id="Frame" clip-path="url(#clip0_413_1342)">
<g id="SVGRepo_iconCarrier">
<path id="Vector" d="M17.8402 16.4118L20.3076 0.725946H24.2542L21.785 16.4118H17.8402ZM36.0436 1.06409C35.2619 0.746299 34.0366 0.405273 32.5066 0.405273C28.6067 0.405273 25.8599 2.53276 25.8364 5.58188C25.8144 7.8358 27.7976 9.09326 29.2945 9.8435C30.8308 10.6126 31.3472 11.1028 31.3398 11.7893C31.33 12.8408 30.113 13.3209 28.9786 13.3209C27.399 13.3209 26.5598 13.0832 25.2637 12.4977L24.755 12.2485L24.2012 15.7598C25.123 16.1979 26.8275 16.5771 28.5975 16.5968C32.7462 16.5968 35.4394 14.4936 35.47 11.2374C35.4847 9.45295 34.4333 8.09518 32.1563 6.97555C30.7769 6.24991 29.932 5.76569 29.941 5.03092C29.941 4.37891 30.6561 3.68172 32.2013 3.68172C33.4917 3.66 34.4268 3.96489 35.1552 4.28268L35.5088 4.46369L36.0436 1.06409ZM46.1997 0.725706H43.1502C42.2055 0.725706 41.4984 1.00503 41.0836 2.02651L35.2223 16.4015H39.3666C39.3666 16.4015 40.044 14.4687 40.1973 14.0443C40.6502 14.0443 44.6762 14.051 45.2517 14.051C45.3698 14.6002 45.7319 16.4015 45.7319 16.4015H49.394L46.1997 0.725225V0.725706ZM41.3612 10.8547C41.6877 9.95095 42.9337 6.46978 42.9337 6.46978C42.9104 6.51152 43.2577 5.5616 43.4569 4.97266L43.7236 6.32507C43.7236 6.32507 44.4793 10.0694 44.6373 10.8545H41.3612V10.8547ZM14.4899 0.725706L10.626 11.4228L10.2144 9.24903C9.49505 6.7431 7.254 4.02811 4.7486 2.6689L8.28166 16.3868L12.4573 16.3818L18.6706 0.725545L14.4899 0.725466" fill="#0E4595"/>
<path id="Vector_2" d="M7.02072 0.725586H0.656737L0.606293 1.05195C5.5574 2.35035 8.83337 5.48809 10.1936 9.25868L8.80977 2.05034C8.57094 1.05708 7.87804 0.760601 7.02086 0.725986" fill="#F2AE14"/>
</g>
</g>
<defs>
<clipPath id="clip0_413_1342">
<rect width="50" height="16.6667" fill="white" transform="translate(0 0.166992)"/>
</clipPath>
</defs>
</svg>
